<?xml version="1.0" encoding="UTF-8"?>
<svg width="24px" height="24px" viewBox="0 0 1024 1024" version="1.1" xmlns="http://www.w3.org/2000/svg"
    xmlns:xlink="http://www.w3.org/1999/xlink">
    <title>globalSetting</title>
    <g id="globalSetting" stroke="none" stroke-width="1" fill="none" fill-rule="evenodd">
        <circle id="Oval" fill="currentColor" cx="512" cy="512" r="512"></circle>
        <path fill="#FFFFFF" transform="scale(0.7) translate(210, 210)"
            d="m816 548.144c49 10 92 36 127 74 3 4 5 10 5 16-1 4-3 9-6 12l-2 2c-9 7-12 18-6 27 4 8 13 11 22 9l4-1c5-2 11-2 16 0 6 3 9 7 12 12 8 26 12 50 12 73 0 24-4 48-12 74-2 5-6 10-12 12-4 2-8 2-13 1l-3-1c-10-4-21-1-26 8-5 8-4 17 3 24l3 2c4 3 7 9 8 15 0 6-1 11-5 16-34 38-78 64-127 73-1 1-2 1-4 1-4 0-9-2-12-4-4-3-7-7-8-12l-1-3c-1-11-10-19-20-19-9 0-17 6-20 16l-1 3c0 6-3 11-8 15s-11 4-16 3c-49-9-93-35-127-73-4-5-6-10-5-16 1-5 3-9 6-12l2-3c9-7 11-17 6-27-5-7-13-11-22-9l-4 2c-5 2-11 2-17 0-5-3-9-7-11-13-9-25-13-49-13-73s4-47 13-73c2-6 6-10 11-12s9-3 14-2l3 2c10 4 21 0 26-8s3-18-3-24l-3-3c-4-3-7-8-8-14s1-12 5-16c34-39 78-64 126-74 6-1 12 0 17 4 3 3 6 7 8 11v4c2 10 10 18 20 18s18-6 20-15l1-3c0-6 4-12 8-15 5-4 11-5 17-4zm-337-546c264 0 479 215 479 479 0 17 0 34-3 53-1 11-12 19-22 18-12-1-20-12-19-23 1-9 2-18 2-27h-416v416c9 0 18-1 27-2 11-1 22 7 23 19 1 11-7 21-18 23-19 2-36 2-53 2-264 0-479-215-479-479s215-479 479-479zm346 592c-10 20-31 33-54 33s-44-13-55-33c-27 8-51 23-73 43 12 19 13 43 2 63-12 20-34 31-56 30-4 15-6 29-6 43s2 27 6 42c22-1 44 10 56 31 11 20 10 44-2 63 22 20 46 35 73 43 11-20 32-33 55-33s44 13 54 33c28-8 52-23 73-43-10-17-12-39-4-58l3-5c12-20 33-32 56-31 4-15 5-29 5-43 0-13-1-27-5-42-23 0-44-10-56-30s-10-45 1-64c-20-19-45-34-73-42zm-367 158h-157c38 91 94 153 157 165zm-203 0h-119c52 67 124 118 207 145-36-36-66-85-88-145zm516-83c57 0 104 46 104 104s-47 104-104 104-104-47-104-104 46-104 104-104zm0 41c-35 0-63 28-63 63 0 34 28 62 63 62s62-28 62-62c0-35-28-63-62-63zm-562-208h-166c3 76 26 147 64 208h134c-17-55-28-118-31-185zm249 0h-208c3 75 15 147 35 208h174v-208zm-218-250h-133c-38 61-61 132-65 208h166c2-75 14-146 32-208zm218 0h-173c-20 62-33 133-35 208h208zm215 0h-173v208h208c-2-68-13-133-30-191zm179 0h-134c19 62 30 133 32 208h166c-3-70-23-137-57-195zm-509-187-10 4c-79 28-147 77-197 141h119c22-59 52-109 88-145zm-42 145h157v-164c-60 11-114 69-153 154zm199-165v165h158c-37-87-90-148-150-163zm116 20 1 1c35 36 64 85 87 144h119c-53-66-125-117-207-145z" />
    </g>
</svg>